# xmcd
#
# Track frame offsets:
#       150
#       18380
#       33540
#       48715
#       65388
#       80375
#       98108
#       114602
#       131226
#       146148
#       163157
#       177250
#       193494
#       210306
#       223431
#       239821
#       255841
#       273090
#       290817
#       311775
#
# Disc length: 4381 seconds
#
# Revision: 0
# Processed by: cddbd v1.5.1PL0 Copyright (c) Steve Scherf et al.
# Submitted via: WaveLab 4.01
#
DISCID=42111b14
DTITLE=Verschiedene - Bravo Hits 32
DYEAR=1900
DGENRE=
TTITLE0=Gigi D´Ágostino and Albertion - Super
TTITLE1=DJ Bobo and Irene Cara - What a feeling
TTITLE2=Jeanerre - Will you be there
TTITLE3=Christian - Es ist geil ein Arschloch zu sein
TTITLE4=Walter - Ich geh´ nicht ohne dich
TTITLE5=Seven Schuhmacher - Hey little girl
TTITLE6=Ortiga - Liumbarada
TTITLE7=Natalie - Fight to win
TTITLE8=T. Seven - Hey Mr. President
TTITLE9=Paffendorf - Rhythm and sex
TTITLE10=Puplic Domain - Operation blade
TTITLE11=Brooklyn Bounce - Born to bounce
TTITLE12=R.B.A. - No alternative
TTITLE13=Elektrochemie LK - When i rock
TTITLE14=Cosmic gate - Expiartion of space
TTITLE15=Fragma feat - Maria everytime you need me
TTITLE16=Malaria Vs. Chicks on speed - Kaltes, klares Wasser
TTITLE17=Storm - Stormanimal
TTITLE18=Project pitchforh - Existence
TTITLE19=Papa Roach /Brocken home
EXTD=
EXTT0=
EXTT1=
EXTT2=
EXTT3=
EXTT4=
EXTT5=
EXTT6=
EXTT7=
EXTT8=
EXTT9=
EXTT10=
EXTT11=
EXTT12=
EXTT13=
EXTT14=
EXTT15=
EXTT16=
EXTT17=
EXTT18=
EXTT19=
PLAYORDER=
